<svg xmlns="http://www.w3.org/2000/svg" xmlns:xlink="http://www.w3.org/1999/xlink" width="129.63" height="135.47" viewBox="0 0 129.63 135.47">
  <defs>
    <style>
      .cls-1 {
        fill: #2d6cca;
        fill-rule: evenodd;
      }
    </style>
  </defs>
  <path class="cls-1" d="M1438.35,3444.04l15.39-13.4h20.15V3408.8h-50.17v21.84h14.63v13.4Zm-10.45-17.77v-13.11h41.81v13.11h-17.48l-9.7,8.45v-8.45H1427.9Zm4.18-8.74h4.18v4.37h-4.18v-4.37Zm8.36,0h16.72v4.37h-16.72v-4.37Zm20.9,0h4.18v4.37h-4.18v-4.37Zm18.62,122.34-1.69-17.68a15.118,15.118,0,0,0,12.34-15.09v-28.4h-8.36v-3.02a7.905,7.905,0,0,0-4.07-7,13.35,13.35,0,0,0,4.07-9.64v-4.37c0-7.23-5.63-13.11-12.54-13.11s-12.55,5.88-12.55,13.11v4.37a13.1,13.1,0,0,0,8.27,12.31l-11.22,11.72h-11.73a8.685,8.685,0,0,0-6.01-7.83l-8.57-2.55v-3.91a13.314,13.314,0,0,0,4.18-9.74v-4.37c0-7.23-5.63-13.11-12.54-13.11s-12.55,5.88-12.55,13.11v4.37a13.314,13.314,0,0,0,4.18,9.74v3.91l-8.57,2.55a8.731,8.731,0,0,0-6.06,8.41v8.16h-8.36v13.11h4.18v34.95h-18.81v4.37h129.6v-4.37h-23.19Zm-18.62-34.95V3494.9l14.82-15.48a7.025,7.025,0,0,0,1.85-4.19,3.469,3.469,0,0,1,.06.45v27.05a6.43,6.43,0,0,1-6.27,6.56h-16.73v-4.37h6.27Zm-6.27,17.47h10.65l1.68,17.48h-12.33v-17.48Zm14.85,0h4.17l1.67,17.48h-4.16Zm12.33-19.66v-19.66h4.18v24.03a10.71,10.71,0,0,1-10.45,10.93h-20.91v-4.37h16.73A10.71,10.71,0,0,0,1482.25,3502.73Zm-20.91-43.69v-4.37a8.373,8.373,0,1,1,16.73,0v4.37A8.373,8.373,0,1,1,1461.34,3459.04Zm-5.4,28.4,13.94-14.57a2.32,2.32,0,0,1,1.66-.72,2.409,2.409,0,0,1,2.35,2.45,2.522,2.522,0,0,1-.69,1.73l-14.81,15.48h-22.13a2.187,2.187,0,0,1,0-4.37h19.68Zm-44.77-32.77a8.373,8.373,0,1,1,16.73,0v4.37a8.373,8.373,0,1,1-16.73,0v-4.37Zm8.37,17.48a11.923,11.923,0,0,0,4.18-.77v2.35c-0.52.84-1.96,2.79-4.18,2.79s-3.67-1.95-4.19-2.79v-2.35A11.979,11.979,0,0,0,1419.54,3472.15Zm-18.82,11.5a4.357,4.357,0,0,1,3.03-4.2l8.61-2.58a8.413,8.413,0,0,0,14.35,0l8.61,2.57a4.309,4.309,0,0,1,2.94,3.63h-2a6.421,6.421,0,0,0-6.27,6.55,6.9,6.9,0,0,0,.38,2.19h-29.65v-8.16Zm-8.36,12.53h64.8v4.37h-64.8v-4.37Zm4.18,17.48h6.27v-4.37h-6.27v-4.37h54.35v4.37h-43.9v4.37h43.9v26.21h-4.98l-4.18-8.74H1405.7l-4.18,8.74h-4.98v-26.21Zm44.7,26.21h-35.05l2.09-4.37h30.87Z" transform="translate(-1373.53 -3408.78)"/>
</svg>
