<svg xmlns="http://www.w3.org/2000/svg" width="145.972" height="145.97" viewBox="0 0 145.972 145.97">
  <defs>
    <style>
      .cls-1 {
        fill: #fff;
        fill-rule: evenodd;
      }
    </style>
  </defs>
  <path class="cls-1" d="M1015.98,2978.72a32.333,32.333,0,0,0-.06-12.4l11.16-26.89v-0.06a45.337,45.337,0,0,1,7.83-13.57,3.653,3.653,0,0,0,.9-3.32l-4.58-19.73a2.034,2.034,0,0,0-.24-0.59c-0.02-.04-0.03-0.08-0.05-0.12s-0.1-.11-0.15-0.18a3.264,3.264,0,0,0-.34-0.4c-0.09-.06-0.18-0.11-0.27-0.16a3.48,3.48,0,0,0-.38-0.23,2.152,2.152,0,0,0-.57-0.13,1.424,1.424,0,0,1-.16-0.05,2.514,2.514,0,0,0-1.34.3c-0.04.02-.08,0.03-0.12,0.05h-0.02l-17.2,10.72a3.662,3.662,0,0,0-1.72,2.99,45.448,45.448,0,0,1-4.09,15.17v0.02l-5.575,13.46a32.842,32.842,0,0,0-8.7-3.14,131.142,131.142,0,0,0,1.261-23.91,26.547,26.547,0,0,0,6.045-19.5c-1.522-14.17-14.349-24.41-14.9-24.84a2.436,2.436,0,0,0-3.86,2.54c1.254,4.7.168,9.67-9.1,19.88a14.218,14.218,0,0,0-3.339,15.51,18.919,18.919,0,0,0,3.468,5.59c-0.589,3.76-1.052,7.32-1.371,10.79a121.558,121.558,0,0,0-.424,17.25,32.705,32.705,0,0,0-6.064,4.22l-11.812-50.45a0.576,0.576,0,0,0-.063-0.14,2.425,2.425,0,0,0-.17-0.47l-12.065-22.25a5.623,5.623,0,0,0-10.565,2.47l-0.915,25.29a2.546,2.546,0,0,0,.06.54v0.11l12.051,51.37a26.808,26.808,0,0,0-5.631.84l-13.256-31.98a4.925,4.925,0,0,0-6.356-2.6l-20.26,8.38a4.87,4.87,0,0,0-2.637,6.35l17.978,43.32a19.448,19.448,0,0,0,1,38.87H1016.55A19.462,19.462,0,1,0,1015.98,2978.72Zm-2.48-62.96,10.21-6.37-3.61,8.72a2.437,2.437,0,0,0,4.5,1.87l3.61-8.72,2.71,11.7a47.988,47.988,0,0,0-7.07,11.65,10.009,10.009,0,0,1-13.61-5.63A47.87,47.87,0,0,0,1013.5,2915.76Zm-5.6,19.09a14.832,14.832,0,0,0,6.07,4.42,15.459,15.459,0,0,0,5.96,1.26c0.49-.01.99-0.04,1.48-0.09l-7.78,18.73a32.968,32.968,0,0,0-10.45-12.92Zm-33.365-17.37,12.235,0.75c0.075,2.27.049,4.62-.027,7.01a51.4,51.4,0,0,1-12.2-.59c-0.307-.05-0.607-0.08-0.911-0.12,0.244-2.29.541-4.61,0.9-7.05h0Zm-1.162-19.59c6.466-7.12,9.817-12.6,10.6-17.76a32.548,32.548,0,0,1,8.789,17.44,21.772,21.772,0,0,1-4.929,15.84q-7.215-.435-14.273-0.87a10.146,10.146,0,0,1-.188-14.65h0Zm-0.185,31.49,0.706,0.09a70,70,0,0,0,9.481.8c1.008,0,2.07-.08,3.134-0.16-0.221,3.13-.584,6.4-1.045,9.78-0.6-.03-1.19-0.09-1.794-0.09a32.536,32.536,0,0,0-10.794,1.86,117.224,117.224,0,0,1,.307-12.28h0Zm-18.838,28.44-6.967-29.64a2.436,2.436,0,0,0-4.742,1.11l6.261,26.68a26.988,26.988,0,0,0-5.309-1.32l-10.688-45.56a11.528,11.528,0,0,0,4.768,1.03c0.153,0,.317-0.02.472-0.03l1.722,7.35a2.435,2.435,0,1,0,4.742-1.11l-1.724-7.35a11.5,11.5,0,0,0,4.254-3.24l10.867,46.42A32.321,32.321,0,0,0,954.35,2957.82Zm-14.88-52.78a8.089,8.089,0,0,1-8.131-3.26l0.309-8.56a14.749,14.749,0,0,0,2.569.24,10.839,10.839,0,0,0,2.474-.28,12.373,12.373,0,0,0,4.516-2.24l4.1,7.56a8.067,8.067,0,0,1-5.838,6.54h0Zm-6.67-28.42a0.763,0.763,0,0,1,.837.37l5.222,9.65a6.909,6.909,0,0,1-7.041,1.65l0.4-10.97A0.752,0.752,0,0,1,932.8,2876.62Zm-17.625,48.58,1.861,4.5-9.011,3.72a2.435,2.435,0,0,0,.937,4.68,2.492,2.492,0,0,0,.933-0.19l9.011-3.73,1.863,4.5-4.508,1.86a2.438,2.438,0,0,0,.935,4.69,2.7,2.7,0,0,0,.931-0.19l4.508-1.87,1.863,4.5-9.019,3.73a2.436,2.436,0,0,0,1.866,4.5l9.011-3.73,1.97,4.75a28.267,28.267,0,0,0-15.769,19.17l-17.651-42.51Zm101.375,87.58H909.391a14.6,14.6,0,1,1,0-29.19,14.009,14.009,0,0,1,4.167.6,2.432,2.432,0,0,0,3.139-2.28,23.138,23.138,0,0,1,37.018-18.03,2.428,2.428,0,0,0,3.733-1.09,28.011,28.011,0,0,1,53,18.06,2.4,2.4,0,0,0,.53,2.36,2.43,2.43,0,0,0,2.32.73,15.332,15.332,0,0,1,3.25-.35A14.6,14.6,0,1,1,1016.55,3012.78Zm-32.43-102.9a2.436,2.436,0,0,0,1.948-.96,18.226,18.226,0,0,0,3.24-14.32,2.435,2.435,0,1,0-4.706,1.25,13.5,13.5,0,0,1-2.416,10.13,2.43,2.43,0,0,0,1.949,3.89Zm-3.2,73.71a11.968,11.968,0,0,0-5.224,1.21,14.61,14.61,0,0,0-25.243,14.33,2.436,2.436,0,1,0,4.481-1.91,9.865,9.865,0,0,1-.8-3.9,9.731,9.731,0,0,1,9.741-9.73,9.632,9.632,0,0,1,8.8,5.59,2.358,2.358,0,0,0,.17.23q0.058,0.12.129,0.24a1.344,1.344,0,0,0,.156.13,2.21,2.21,0,0,0,.378.32,2.755,2.755,0,0,0,.39.24,2.257,2.257,0,0,0,.438.14,2.359,2.359,0,0,0,.458.07,2.95,2.95,0,0,0,.93-0.16,1.3,1.3,0,0,0,.193-0.04,2.3,2.3,0,0,0,.226-0.17,2.46,2.46,0,0,0,.256-0.13,7.158,7.158,0,0,1,4.52-1.6,7.309,7.309,0,0,1,6.624,4.25,2.435,2.435,0,0,0,4.432-2.02A12.165,12.165,0,0,0,980.918,2983.59Zm-47.943-16.91c-0.368.12-8.972,3.09-8.972,12.04a2.436,2.436,0,0,0,4.871,0,8.376,8.376,0,0,1,5.655-7.43,2.437,2.437,0,1,0-1.554-4.62v0.01Zm34.273-2.63a2.366,2.366,0,0,0,.592.08,2.444,2.444,0,0,0,2.36-1.85,10.371,10.371,0,0,1,9.829-7.88,2.435,2.435,0,0,0-.012-4.87,15.163,15.163,0,0,0-14.54,11.57A2.426,2.426,0,0,0,967.248,2964.05Z" transform="translate(-889.938 -2871.69)"/>
</svg>
