<svg xmlns="http://www.w3.org/2000/svg" xmlns:xlink="http://www.w3.org/1999/xlink" width="148.281" height="148.28" viewBox="0 0 148.281 148.28">
  <defs>
    <style>
      .cls-1 {
        fill: #2d6cca;
        fill-rule: evenodd;
      }
    </style>
  </defs>
  <path class="cls-1" d="M445.746,3525.64h-2.812a17.291,17.291,0,0,0,2.812-9.44v-6.21a12.33,12.33,0,0,0-.669-4.02l-7.645-22.23a7.449,7.449,0,0,0-5.032-5.19l4.659-17.4a7.32,7.32,0,0,0-2.941-8.01,6.649,6.649,0,0,0-2.224-1.06,6.971,6.971,0,0,0-1.977-.28,7.337,7.337,0,0,0-7.133,5.38L409.6,3497.71a12.491,12.491,0,0,0-.336,6.38l3.811,14.81a17.254,17.254,0,0,1,.546,4.3v2.44h-2.471a2.467,2.467,0,0,0-2.472,2.47v14.83a2.474,2.474,0,0,0,2.472,2.47h34.6a2.474,2.474,0,0,0,2.472-2.47v-14.83A2.467,2.467,0,0,0,445.746,3525.64Zm-27.888-7.99-3.781-14.67a7.411,7.411,0,0,1,.22-3.75l13.23-40.67a2.443,2.443,0,0,1,2.993-1.72h0.024a2.361,2.361,0,0,1,.757.37,2.418,2.418,0,0,1,.988,2.66l-5.1,19.06a7.339,7.339,0,0,0-4.326,6.72,6.822,6.822,0,0,0,.248,1.92l4.473,16.71a2.472,2.472,0,1,0,4.775-1.28l-4.481-16.77a2.1,2.1,0,0,1-.072-0.58,2.4,2.4,0,0,1,1.639-2.3c0.057-.02.292-0.1,0.329-0.11a2.513,2.513,0,0,1,2.936,1.95l7.693,22.39a7.326,7.326,0,0,1,.4,2.41v6.21a12.337,12.337,0,0,1-2.076,6.86l-1.717,2.58H418.56v-2.44A22.384,22.384,0,0,0,417.858,3517.65Zm25.417,22.82H413.617v-9.89h29.658v9.89Zm74.144-12.36v14.83a2.473,2.473,0,0,0,2.471,2.47h34.6a2.473,2.473,0,0,0,2.471-2.47v-14.83a2.467,2.467,0,0,0-2.471-2.47h-2.472v-2.44a17.319,17.319,0,0,1,.547-4.32l3.811-14.8a12.481,12.481,0,0,0-.337-6.38l-13.187-40.52a7.334,7.334,0,0,0-7.121-5.37,6.971,6.971,0,0,0-1.977.28,6.649,6.649,0,0,0-2.224,1.06,7.32,7.32,0,0,0-2.941,8.01l4.646,17.4a7.453,7.453,0,0,0-5.032,5.19l-7.644,22.23a12.325,12.325,0,0,0-.67,4.01v6.21a17.292,17.292,0,0,0,2.813,9.44H519.89A2.467,2.467,0,0,0,517.419,3528.11Zm29.657-4.91v2.44H528.627l-1.718-2.58a12.345,12.345,0,0,1-2.076-6.86v-6.21a7.379,7.379,0,0,1,.4-2.41l7.694-22.39a2.513,2.513,0,0,1,2.936-1.95,3.17,3.17,0,0,1,.329.11,2.4,2.4,0,0,1,1.638,2.3,2.1,2.1,0,0,1-.071.58L533.271,3503a2.472,2.472,0,1,0,4.775,1.28l4.473-16.71a6.785,6.785,0,0,0,.247-1.92,7.33,7.33,0,0,0-4.315-6.72l-5.1-19.06a2.438,2.438,0,0,1,.988-2.67,2.337,2.337,0,0,1,.757-0.36,2.444,2.444,0,0,1,3.011,1.69c0,0.01,0,.02.007,0.03l13.229,40.66a7.417,7.417,0,0,1,.22,3.75l-3.781,14.68A22.387,22.387,0,0,0,547.076,3523.2Zm-24.714,7.38h29.657v9.89H522.362v-9.89Zm0.988-115.95-39.543-17.3a2.432,2.432,0,0,0-1.977,0l-39.544,17.3a2.467,2.467,0,0,0-1.483,2.26v49.43a2.466,2.466,0,0,0,1.35,2.2l39.543,20.12a2.436,2.436,0,0,0,1.122.27,2.51,2.51,0,0,0,1.11-.26l39.543-19.87a2.476,2.476,0,0,0,1.362-2.21v-49.68A2.463,2.463,0,0,0,523.35,3414.63Zm-40.532-12.34,33.377,14.6-33.377,14.61-8.675-3.8,13.2-5.78a2.476,2.476,0,0,0,0-4.53l-10.605-4.62a2.516,2.516,0,0,0-1.978,0l-17.376,7.6-7.931-3.48Zm-22.243,24.87,4.943,2.16v10.76l-4.943-2.47v-10.45Zm2.966-4.09,12.2-5.34,4.424,1.93L467.99,3425Zm-17.8-2.4,9.886,4.33v14.13a2.482,2.482,0,0,0,1.367,2.22l9.886,4.94a2.473,2.473,0,0,0,3.315-1.11,2.446,2.446,0,0,0,.261-1.1v-12.61l9.886,4.33v46.61l-34.6-17.6v-44.14Zm39.544,61.76v-46.62l34.6-15.14v44.37Zm13.736-18-9.9,4.97a2.474,2.474,0,0,0,2.224,4.42l9.9-4.98a2.47,2.47,0,1,0-2.225-4.41h0Zm-8.793-.23a2.382,2.382,0,0,0,1.107-.27l9.762-4.9a2.474,2.474,0,0,0-2.224-4.42h0l-9.76,4.91A2.472,2.472,0,0,0,490.233,3464.2Z" transform="translate(-408.688 -3397.13)"/>
</svg>
